<svg width="166" height="32" viewBox="0 0 166 32" fill="none" xmlns="http://www.w3.org/2000/svg">
    <g clip-path="url(#clip0)">
        <path d="M61.7474 7.2547H58.6666C58.4348 7.2547 58.236 7.45346 58.236 7.68534V14.0125C56.9772 12.5218 55.2546 11.7599 53.0352 11.7599C51.5776 11.7599 50.2857 12.0911 49.2256 12.7205C48.1325 13.3499 47.3043 14.2443 46.7412 15.3706C46.1449 16.4969 45.8799 17.7557 45.8799 19.2133C45.8799 20.6708 46.178 21.9628 46.7412 23.0228C47.3374 24.116 48.1325 24.9441 49.1594 25.5073C50.1863 26.1036 51.3457 26.3686 52.6708 26.3686C53.8964 26.3686 54.9896 26.1367 55.9503 25.706C56.9441 25.2754 57.7391 24.6129 58.3354 23.7847V25.5073C58.3354 25.7392 58.5341 25.9379 58.766 25.9379H61.7474C61.9793 25.9379 62.178 25.7392 62.178 25.5073V7.68534C62.178 7.45346 61.9793 7.2547 61.7474 7.2547ZM58.236 19.4783C58.236 19.9752 58.1366 20.439 57.971 20.9027C57.7722 21.3665 57.5072 21.764 57.176 22.1284C56.7784 22.5259 56.2815 22.8572 55.7515 23.0559C55.1884 23.2547 54.6252 23.3872 53.9958 23.3872C52.7039 23.3872 51.7101 23.0228 50.9813 22.2609C50.2526 21.5321 49.8882 20.4721 49.8882 19.147C49.8882 17.7226 50.2526 16.6294 50.9813 15.9007C51.7101 15.1719 52.7702 14.8075 54.1283 14.8075C55.4203 14.8075 56.4472 15.1719 57.1428 15.9338C57.5072 16.2982 57.7722 16.7288 57.971 17.2257C58.1697 17.7226 58.2691 18.2526 58.2691 18.7827V19.4783H58.236Z" fill="#0A1F2D"/>
        <path d="M78.3769 13.615C77.0187 12.3893 75.1305 11.7599 72.646 11.7599C71.0228 11.7599 69.5984 12.0912 68.4059 12.7206C67.2133 13.35 66.2858 14.2444 65.6233 15.4038C64.9939 16.5301 64.6626 17.822 64.6626 19.2796C64.6626 21.5321 65.3583 23.2878 66.7496 24.5466C68.1409 25.8054 70.0622 26.4348 72.5798 26.4348C74.7661 26.4348 76.5218 26.0373 77.7806 25.2754C78.94 24.5798 79.7019 23.5197 80.1326 22.1284C80.1988 21.9297 80.0332 21.7309 79.8344 21.7309H76.7868C76.6543 21.7309 76.5549 21.7972 76.5218 21.9297C75.9918 23.056 74.733 23.6191 72.7785 23.6191C71.9173 23.6191 71.1885 23.4535 70.5591 23.1553C69.9297 22.8572 69.3997 22.4266 69.0353 21.9297C68.6709 21.3996 68.4721 20.8034 68.4721 20.1077H79.8344C80.1326 20.1077 80.3976 19.8758 80.3976 19.5446V18.9152C80.3976 16.5963 79.7019 14.8406 78.3769 13.615ZM68.5053 17.6232C68.6046 16.7288 69.0353 16.0001 69.7972 15.4369C70.5591 14.8406 71.4866 14.5756 72.5798 14.5756C73.8717 14.5756 74.8655 14.8406 75.5943 15.3707C76.3231 15.9007 76.6874 16.6626 76.7206 17.6232H68.5053Z" fill="#0A1F2D"/>
        <path d="M111.139 11.9255C109.151 11.9255 107.495 12.7536 106.137 14.4099V12.588C106.137 12.3561 105.938 12.1574 105.706 12.1574H102.725C102.493 12.1574 102.294 12.3561 102.294 12.588V25.5404C102.294 25.7723 102.493 25.971 102.725 25.971H105.805C106.037 25.971 106.236 25.7723 106.236 25.5404V18.7164C106.236 17.7888 106.633 16.9938 107.429 16.2981C108.29 15.5694 109.383 15.1719 110.708 15.1719C110.874 15.1719 111.039 15.1719 111.238 15.205C111.536 15.2381 111.768 15.0062 111.768 14.7081V12.4224C111.768 12.1574 111.536 11.9255 111.271 11.9255C111.205 11.9255 111.172 11.9255 111.139 11.9255Z" fill="#0A1F2D"/>
        <path d="M126.609 13.5818C125.25 12.3561 123.362 11.7267 120.878 11.7267C119.255 11.7267 117.83 12.058 116.638 12.6874C115.445 13.3168 114.517 14.2112 113.855 15.3706C113.226 16.4969 112.894 17.7889 112.894 19.2464C112.894 21.499 113.59 23.2547 114.981 24.5135C116.373 25.7723 118.294 26.4017 120.811 26.4017C122.998 26.4017 124.754 26.0042 126.012 25.2423C127.172 24.5466 127.934 23.4866 128.364 22.0953C128.431 21.8965 128.265 21.6978 128.066 21.6978H125.019C124.886 21.6978 124.787 21.764 124.754 21.8965C124.223 23.0228 122.965 23.586 121.01 23.586C120.149 23.586 119.42 23.4203 118.791 23.1222C118.161 22.8241 117.631 22.3934 117.267 21.8965C116.903 21.3665 116.704 20.7702 116.704 20.0746H128.166C128.464 20.0746 128.729 19.8427 128.729 19.5114V18.882C128.629 16.5632 127.967 14.8075 126.609 13.5818ZM116.737 17.5901C116.836 16.6957 117.267 15.9669 118.029 15.4038C118.791 14.8075 119.718 14.5425 120.811 14.5425C122.103 14.5425 123.097 14.8075 123.826 15.3375C124.555 15.8675 124.919 16.6294 124.952 17.5901H116.737Z" fill="#0A1F2D"/>
        <path d="M144.596 13.5818C143.238 12.3561 141.35 11.7267 138.865 11.7267C137.242 11.7267 135.818 12.058 134.625 12.6874C133.433 13.3168 132.505 14.2112 131.842 15.3706C131.213 16.4969 130.882 17.7889 130.882 19.2464C130.882 21.499 131.577 23.2547 132.969 24.5135C134.36 25.7723 136.281 26.4017 138.799 26.4017C140.985 26.4017 142.741 26.0042 144 25.2423C145.159 24.5466 145.921 23.4866 146.352 22.0953C146.418 21.8965 146.252 21.6978 146.054 21.6978H143.006C142.874 21.6978 142.774 21.764 142.741 21.8965C142.211 23.0228 140.952 23.586 138.998 23.586C138.136 23.586 137.408 23.4203 136.778 23.1222C136.149 22.8241 135.619 22.3934 135.254 21.8965C134.89 21.3665 134.691 20.7702 134.691 20.0746H146.153C146.451 20.0746 146.716 19.8427 146.716 19.5114V18.882C146.617 16.5632 145.921 14.8075 144.596 13.5818ZM134.724 17.5901C134.824 16.6957 135.255 15.9669 136.016 15.4038C136.778 14.8075 137.706 14.5425 138.799 14.5425C140.091 14.5425 141.085 14.8075 141.814 15.3375C142.542 15.8675 142.907 16.6294 142.94 17.5901H134.724Z" fill="#0A1F2D"/>
        <path d="M164.77 7.22156H161.689C161.457 7.22156 161.259 7.42032 161.259 7.6522V13.9793C160 12.4886 158.277 11.7267 156.058 11.7267C154.6 11.7267 153.308 12.058 152.248 12.6874C151.155 13.3168 150.327 14.2112 149.764 15.3375C149.168 16.4638 148.903 17.7226 148.903 19.1802C148.903 20.6377 149.201 21.9296 149.764 22.9897C150.36 24.0828 151.155 24.911 152.182 25.4741C153.209 26.0704 154.368 26.3354 155.693 26.3354C156.919 26.3354 158.012 26.1035 158.973 25.6729C159.967 25.2423 160.762 24.5797 161.358 23.7516V25.5073C161.358 25.7392 161.557 25.9379 161.789 25.9379H164.77C165.002 25.9379 165.201 25.7392 165.201 25.5073V7.6522C165.201 7.38719 165.002 7.22156 164.77 7.22156ZM161.292 19.4452C161.292 19.9421 161.192 20.4058 161.027 20.8696C160.828 21.3334 160.563 21.7309 160.232 22.0953C159.834 22.4928 159.337 22.824 158.807 23.0228C158.244 23.2216 157.681 23.3541 157.052 23.3541C155.76 23.3541 154.766 22.9897 154.037 22.2278C153.308 21.499 152.944 20.439 152.944 19.1139C152.944 17.6895 153.308 16.5963 154.037 15.8675C154.766 15.1387 155.826 14.7744 157.184 14.7744C158.476 14.7744 159.503 15.1387 160.199 15.9006C160.563 16.265 160.828 16.6957 161.027 17.1926C161.226 17.6895 161.325 18.2195 161.325 18.7495V19.4452H161.292Z" fill="#0A1F2D"/>
        <path d="M98.5176 12.1574H95.5363C95.3044 12.1574 95.1056 12.3561 95.1056 12.588V14.0125C94.4762 13.2506 93.7475 12.6543 92.9193 12.2899C92.058 11.9255 91.0311 11.7267 89.8386 11.7267C88.4141 11.7267 87.1553 12.0249 86.0622 12.6543C84.969 13.2506 84.1408 14.1118 83.5446 15.1388C82.9483 16.1988 82.6501 17.3913 82.6501 18.7164C82.6501 20.0083 82.9152 21.1346 83.4121 22.1284C83.4452 22.1947 83.4783 22.2609 83.5446 22.3603C84.1408 23.3872 84.9359 24.1822 85.9628 24.7454C86.4597 25.0104 86.9566 25.2091 87.4866 25.3417C88.0829 25.5073 88.7454 25.5735 89.441 25.5735C90.2029 25.5735 90.8986 25.5073 91.5611 25.3417C91.9586 25.2423 92.323 25.1098 92.6874 24.9773C93.6481 24.5797 94.41 23.9835 95.0394 23.2216V24.6791V25.3417V25.3748C95.0063 26.0704 94.8075 26.6667 94.4762 27.1967C94.1118 27.7267 93.5818 28.1574 92.9524 28.4555C92.5549 28.6543 92.1243 28.7868 91.6274 28.853C91.3292 28.8862 90.998 28.9193 90.6667 28.9193C88.6791 28.9193 87.3872 28.3561 86.8241 27.1967C86.7909 27.0973 86.6916 27.0311 86.5922 27.0311C86.559 27.0311 86.5591 27.0311 86.5259 27.0311H83.4121C83.1802 27.0311 83.0477 27.2299 83.0808 27.4617C83.5114 28.8862 84.3065 29.9462 85.4659 30.675C86.7578 31.47 88.5135 31.8675 90.7661 31.8675C92.4224 31.8675 93.88 31.6025 95.0394 31.0394C95.1056 31.0062 95.1719 30.9731 95.205 30.94C95.8013 30.675 96.3313 30.3106 96.8282 29.88C98.0539 28.7537 98.7495 27.263 98.882 25.3417C98.9483 24.8448 98.9483 24.3147 98.9483 23.7847V12.6212C98.9483 12.3561 98.7495 12.1574 98.5176 12.1574ZM86.7247 17.8882C86.8572 17.027 87.2216 16.3313 87.7847 15.8013C88.5135 15.1056 89.5735 14.7744 90.8986 14.7744C92.2236 14.7744 93.2174 15.1056 93.88 15.7682C94.5094 16.3976 94.8738 17.1263 94.9731 17.9214C95.0063 18.087 95.0063 18.2526 95.0063 18.4183V18.882C95.0063 19.7764 94.7412 20.5383 94.2112 21.1346C94.1118 21.234 94.0125 21.3665 93.88 21.4659C93.5156 21.8303 93.0518 22.0953 92.4887 22.294C91.9255 22.4928 91.3624 22.5922 90.733 22.5922C89.441 22.5922 88.4472 22.2609 87.7185 21.5321C87.586 21.4328 87.4866 21.3002 87.3872 21.1677C86.8903 20.5052 86.6253 19.6771 86.6253 18.6501C86.6916 18.3851 86.6916 18.1532 86.7247 17.8882Z" fill="#0A1F2D"/>
        <path d="M38.1615 12.6211L26.3023 6.09526L25.9048 5.86337C25.5736 5.73087 25.2092 5.66462 24.8448 5.66462C24.4804 5.66462 24.116 5.73087 23.7847 5.86337L23.321 6.12838L21.4659 7.1553C21.4328 7.18843 21.4328 7.22155 21.4659 7.25468L22.2278 7.65219L26.6998 10.1035L29.3499 11.5611C29.3499 11.5611 25.441 11.7267 21.8303 13.8137C21.1678 14.2112 20.4058 14.41 19.6439 14.41H19.4783C18.7164 14.41 17.9545 14.2112 17.292 13.8137C13.6812 11.7267 9.77231 11.5611 9.77231 11.5611L19.5446 6.16151L23.0228 4.20706C23.3872 4.0083 24.646 3.21327 26.0704 3.64391C26.6998 3.80954 27.7599 4.40582 28.6212 4.90271C29.3168 5.30023 30.1781 5.16772 30.7081 4.53832C30.9731 4.20706 31.1056 3.84267 31.1056 3.44515C31.1056 2.88201 30.8406 2.35199 30.3106 2.02072C29.1843 1.32507 27.6274 0.496915 26.3686 0.298157C23.1222 -0.26499 21.0684 1.32507 19.5114 2.15323C18.3189 1.19257 15.9007 -0.231864 12.6874 0.298157C11.3955 0.530041 9.87169 1.32507 8.74539 2.02072C7.88411 2.55074 7.68535 3.74329 8.34788 4.5052C8.67914 4.86959 9.14291 5.06834 9.60668 5.06834C9.90481 5.06834 10.1698 5.00209 10.4348 4.83646C11.2961 4.33956 12.3562 3.74329 12.9856 3.57766C14.675 3.11389 16.1326 4.20706 16.1326 4.20706L0.861333 12.6211C0.463818 12.8199 0.231934 13.2505 0.231934 13.6812V15.7681C0.231934 16.1988 0.463818 16.5963 0.861333 16.8282C1.25885 17.0269 1.35823 17.1594 1.35823 17.9213C1.35823 19.2464 0.463817 26.5011 9.93794 26.5011C18.4514 26.5011 17.3914 18.1864 19.5114 18.2195C21.6646 18.1864 20.6046 26.5011 29.0849 26.5011C38.5591 26.5011 37.6646 19.2464 37.6646 17.9213C37.6646 17.1594 37.7309 17.0601 38.1284 16.8282C38.5259 16.6294 38.7578 16.1988 38.7578 15.7681V13.6812C38.7909 13.2174 38.5259 12.8199 38.1615 12.6211ZM14.3437 21.4327C13.4162 23.3872 11.793 23.6853 9.44104 23.5859C7.68535 23.5197 6.06216 22.9565 5.234 21.9959C4.04146 20.6377 4.17396 16.5632 4.63773 15.6688C5.53214 13.9462 13.7475 14.4762 14.8406 16.6625C14.9731 16.8944 15.7019 18.617 14.3437 21.4327ZM33.7889 21.9959C32.9607 22.9234 31.3375 23.4866 29.5818 23.5859C27.263 23.6853 25.6398 23.3872 24.6791 21.4327C23.321 18.617 24.0497 16.8944 24.1491 16.6625C25.2423 14.4762 33.4907 13.9462 34.352 15.6688C34.8489 16.5963 34.9814 20.6708 33.7889 21.9959Z" fill="#0060EC"/>
    </g>
    <defs>
        <clipPath id="clip0">
            <rect width="165.466" height="32" fill="white"/>
        </clipPath>
    </defs>
</svg>
